<svg xmlns="http://www.w3.org/2000/svg" viewBox="0 0 174 134.08"><defs><style>.cls-1{fill:#fff;}</style></defs><title>cardIcon</title><g id="图层_2" data-name="图层 2"><g id="图层_1-2" data-name="图层 1"><path class="cls-1" d="M174,29.61V18.14A18.2,18.2,0,0,0,155.86,0H18.16A18.2,18.2,0,0,0,0,18.14V29.61H174ZM0,47v68.93a18.2,18.2,0,0,0,18.14,18.14h137.7A18.2,18.2,0,0,0,174,115.94V47ZM51.62,82.34H13.28v-4.8H51.62ZM76.48,67.73H13.28v-4.8h63.2Zm48.61,50.55h-8.2v-8.2h8.2Zm13.81,0h-8.2v-8.2h8.2Zm13.79,0h-8.2v-8.2h8.2Z"/></g></g></svg>