<?xml version="1.0" standalone="no"?><!DOCTYPE svg PUBLIC "-//W3C//DTD SVG 1.1//EN" "http://www.w3.org/Graphics/SVG/1.1/DTD/svg11.dtd"><svg t="1530697339192" class="icon" style="" viewBox="0 0 1024 1024" version="1.1" xmlns="http://www.w3.org/2000/svg" p-id="19662" xmlns:xlink="http://www.w3.org/1999/xlink" width="200" height="200"><defs><style type="text/css"></style></defs><path d="M360.789333 617.813333a298.780444 298.780444 0 0 1 73.557334-107.349333C222.208 502.897778 56.888889 446.691556 56.888889 359.139556V455.111111c0 77.084444 128.568889 141.482667 303.900444 162.702222zM483.214222 455.111111c9.102222 0 17.635556-0.853333 26.567111-1.080889C572.928 418.986667 649.272889 398.222222 731.875556 398.222222c19.683556 0 38.570667 2.389333 57.457777 4.608 74.126222-30.72 120.149333-72.305778 120.149334-118.385778V227.555556c0-94.264889-190.805333-170.666667-426.268445-170.666667S56.888889 133.290667 56.888889 227.555556v56.888888c0 94.264889 190.862222 170.666667 426.325333 170.666667zM382.862222 849.180444C196.096 834.901333 56.888889 780.8 56.888889 700.472889V796.444444c0 94.264889 190.862222 170.666667 426.325333 170.666667 8.078222 0 15.587556-0.739556 23.495111-0.967111-52.736-29.923556-94.947556-70.200889-123.847111-116.963556z m-28.615111-61.553777C182.272 765.724444 56.888889 701.895111 56.888889 625.777778V529.749333c0 74.922667 121.173333 126.748444 288.768 145.066667-1.706667 12.060444-4.551111 23.893333-4.551111 36.295111 0 26.567111 5.404444 51.882667 13.141333 76.515556z m290.133333 86.186666H523.946667c-11.207111-0.625778-19.854222-4.323556-25.884445-11.093333a42.894222 42.894222 0 0 1-10.922666-22.471111 32.426667 32.426667 0 0 1 10.922666-20.195556c6.030222-5.290667 14.677333-8.248889 25.884445-8.874666h120.376889v-31.118223l-120.376889-0.512c-11.207111-0.625778-19.854222-3.754667-25.884445-9.386666a34.929778 34.929778 0 0 1-10.922666-21.219556 32.426667 32.426667 0 0 1 10.922666-20.195555c6.030222-5.290667 14.677333-8.248889 25.884445-8.931556H613.831111l-83.626667-116.451555a73.955556 73.955556 0 0 1-11.832888-15.075556 33.678222 33.678222 0 0 1-5.006223-19.968 42.268444 42.268444 0 0 1 12.515556-22.471111c6.257778-5.745778 17.863111-9.443556 34.929778-11.093333 9.443556 0.512 18.659556 3.299556 26.794666 8.135111 7.907556 4.778667 14.336 9.955556 19.342223 15.587555l94.776888 137.159111 104.106667-138.24c5.063111-5.518222 11.491556-10.467556 19.342222-14.791111a69.973333 69.973333 0 0 1 26.851556-7.850666c6.257778 0.284444 11.946667 0.967111 17.123555 1.991111a43.008 43.008 0 0 1 13.767112 4.949333 29.013333 29.013333 0 0 1 9.955555 9.841778 48.071111 48.071111 0 0 1 5.916445 16.782222c0 9.557333-4.152889 18.602667-12.458667 27.136l-96.711111 124.359111h91.704889c10.808889 0.682667 19.342222 3.640889 25.6 8.931556 6.200889 5.233778 9.728 11.946667 10.581333 20.195555a32.938667 32.938667 0 0 1-10.922667 21.731556 40.675556 40.675556 0 0 1-25.884444 9.898666l-119.125333 0.455112v30.151111h119.751111c10.808889 0.568889 19.342222 3.925333 25.6 9.841777 6.200889 5.916444 9.671111 12.970667 10.581333 21.219556a32.540444 32.540444 0 0 1-10.638222 21.447111 40.049778 40.049778 0 0 1-25.543111 9.671111l-119.751111-0.568889v52.337778c-1.649778 27.989333-20.935111 41.984-57.969778 41.984-18.318222 0-32.540444-3.413333-42.666667-10.353778-10.24-6.883556-15.758222-17.464889-16.554667-31.573333v-51.313778z" p-id="19663" fill="#ffffff"></path></svg>