<svg xmlns="http://www.w3.org/2000/svg" viewBox="0 0 191.55 195"><title>activity</title><g id="图层_2" data-name="图层 2"><g id="图层_1-2" data-name="图层 1"><path d="M159.84,69H15.6C7,69,0,61.51,0,52.25V38C0,28.73,7,21.2,15.6,21.2H159.84c8.62,0,15.6,7.53,15.6,16.79V52.25C175.46,61.51,168.45,69,159.84,69ZM15.6,30.45a7.3,7.3,0,0,0-7,7.53V52.25a7.3,7.3,0,0,0,7,7.53H159.84a7.3,7.3,0,0,0,7-7.53V38a7.3,7.3,0,0,0-7-7.53Zm26.58,125a4.63,4.63,0,0,1-4.5-4.73V95.15a4.51,4.51,0,1,1,9,0v55.52A4.61,4.61,0,0,1,42.18,155.42Z"/><path d="M148.13,60.06H27.58c-8.23,0-15,7.34-15,16.35v88.52c0,9,6.7,16.35,15,16.35H74a4.51,4.51,0,0,0,0-9H27.58c-3.73,0-6.76-3.31-6.76-7.4V76.44c0-4.06,3-7.4,6.76-7.4H148.13c3.73,0,6.76,3.31,6.76,7.4v1a4.11,4.11,0,1,0,8.2,0V76.41c0-9-6.7-16.35-15-16.35ZM80.49,29.2A69.43,69.43,0,0,0,66.06,17.94C48.93,7.71,36.2,8.16,34.47,11.27c-.89,1.61.28,5.92,5,11.54L32.72,29a35,35,0,0,1-6.56-10.9c-1.81-5.39-.72-9.2.5-11.43C29.61,1.37,36.2-.85,45.23.34c7.7,1,16.71,4.42,25.33,9.56A79.88,79.88,0,0,1,86.88,22.67Zm14.62-.06-6.37-6.59A79,79,0,0,1,105,9.88c8.62-5.17,17.63-8.54,25.33-9.56,9-1.2,15.62,1,18.57,6.28,1.25,2.22,2.34,6,.5,11.45A34.43,34.43,0,0,1,142.82,29l-6.76-6.14c4.75-5.62,5.95-9.93,5-11.57-.75-1.39-4.06-2.45-9.62-1.7-6.45.86-14.46,3.92-22,8.4A69.06,69.06,0,0,0,95.11,29.15Z"/><path d="M190.94,172.25,174.43,144a41.81,41.81,0,0,0,5.5-21.28c0-24.58-20.18-44.39-44.76-44.39s-44.76,19.44-44.76,44a45.83,45.83,0,0,0,5.5,21.28L79.41,171.89a3.33,3.33,0,0,0,0,3.67,3.85,3.85,0,0,0,3.3,1.83h18l9.17,15.78a3.85,3.85,0,0,0,3.3,1.83h0a3.85,3.85,0,0,0,3.3-1.83l15-26c1.47,0,2.57.37,4,.37a15.06,15.06,0,0,0,4-.37l15,26a3.85,3.85,0,0,0,3.3,1.83h0a3.85,3.85,0,0,0,3.3-1.83l9.17-15.78,17.61.37a3.85,3.85,0,0,0,3.3-1.83,4.34,4.34,0,0,0-.37-3.67Zm-77.78,11.37-7-12.11a3.85,3.85,0,0,0-3.3-1.83h0l-13.57.37,11.37-19.44a46.57,46.57,0,0,0,23.11,14.67l-10.64,18.34Zm-15-61.27a37.42,37.42,0,1,1,37.42,37.05,37.27,37.27,0,0,1-37.42-37.05Zm70.07,47.69a3.85,3.85,0,0,0-3.3,1.83l-7,12.11-10.64-18.34A46.57,46.57,0,0,0,170.4,151l11,19.08Zm0,0"/><path d="M135.14,100.75l5.64,11.58.91,2,2.29.3,12.65,1.83-9.3,9.14-1.52,1.52.3,2.13,2.13,12.8-11.12-5.94-2-.76-2,1.07L122,142.36l2.13-12.8.3-2.13L123,125.9l-9.3-9.14,12.65-1.83,2.29-.3.91-2,5.64-11.89m0-2.9a3.55,3.55,0,0,0-3.2,2l-5.49,11.43-12.65,2a3.11,3.11,0,0,0-2.74,2.29,3.32,3.32,0,0,0,.76,3.51l9.3,9.3-2.13,13a3.47,3.47,0,0,0,1.37,3.35,4.69,4.69,0,0,0,2,.46,3.07,3.07,0,0,0,1.68-.46l11.12-5.94,11.12,5.94a3.42,3.42,0,0,0,3.66-.15,3.3,3.3,0,0,0,1.37-3.35l-2.13-12.8,9.3-9.3a3.32,3.32,0,0,0,.76-3.51,3.49,3.49,0,0,0-2.74-2.29l-12.65-1.83L138.34,100a3.44,3.44,0,0,0-3.2-2.13Z"/></g></g></svg>