<?xml version="1.0" standalone="no"?><!DOCTYPE svg PUBLIC "-//W3C//DTD SVG 1.1//EN" "http://www.w3.org/Graphics/SVG/1.1/DTD/svg11.dtd"><svg t="1527906509551" class="icon" style="" viewBox="0 0 1024 1024" version="1.1" xmlns="http://www.w3.org/2000/svg" p-id="2015" xmlns:xlink="http://www.w3.org/1999/xlink" width="200" height="200"><defs><style type="text/css"></style></defs><path d="M512 980.676923c-124.061538 0-242.215385-49.230769-330.830769-137.846154s-137.846154-206.769231-137.846154-330.830769c0-124.061538 49.230769-242.215385 137.846154-330.830769s204.8-137.846154 330.830769-137.846154c124.061538 0 242.215385 49.230769 330.830769 137.846154s137.846154 204.8 137.846154 330.830769-49.230769 242.215385-137.846154 330.830769-206.769231 137.846154-330.830769 137.846154z m0-905.846154c-116.184615 0-226.461538 45.292308-309.169231 128-82.707692 82.707692-129.969231 192.984615-129.969231 309.169231 0 116.184615 45.292308 226.461538 128 309.169231 82.707692 82.707692 192.984615 128 309.169231 128 116.184615 0 226.461538-45.292308 309.169231-128 82.707692-82.707692 128-192.984615 128-309.169231 0-116.184615-45.292308-226.461538-128-309.169231-80.738462-82.707692-191.015385-128-307.2-128z" fill="#000000" p-id="2016"></path><path d="M289.476923 525.784615H59.076923c-7.876923 0-15.753846-5.907692-15.753846-13.784615 0-7.876923 5.907692-15.753846 15.753846-15.753846h228.430769c7.876923 0 15.753846 5.907692 15.753846 15.753846 0 7.876923-5.907692 13.784615-13.784615 13.784615zM964.923077 525.784615H734.523077c-7.876923 0-15.753846-5.907692-15.753846-13.784615 0-7.876923 5.907692-15.753846 15.753846-15.753846H964.923077c7.876923 0 15.753846 5.907692 15.753846 15.753846-1.969231 7.876923-7.876923 13.784615-15.753846 13.784615zM192.984615 846.769231c-3.938462 0-7.876923-1.969231-9.846153-3.938462-5.907692-5.907692-5.907692-15.753846 0-21.661538l161.476923-161.476923c5.907692-5.907692 15.753846-5.907692 21.661538 0s5.907692 15.753846 0 21.661538l-161.476923 161.476923c-5.907692 1.969231-9.846154 3.938462-11.815385 3.938462zM669.538462 368.246154c-3.938462 0-7.876923-1.969231-9.846154-3.938462-5.907692-5.907692-5.907692-15.753846 0-21.661538l161.476923-161.476923c5.907692-5.907692 15.753846-5.907692 21.661538 0s5.907692 15.753846 0 21.661538l-161.476923 161.476923c-3.938462 1.969231-7.876923 3.938462-11.815384 3.938462zM512 978.707692c-7.876923 0-15.753846-5.907692-15.753846-15.753846V734.523077c0-7.876923 5.907692-15.753846 15.753846-15.753846s15.753846 5.907692 15.753846 15.753846v228.430769c0 9.846154-7.876923 15.753846-15.753846 15.753846zM512 303.261538c-7.876923 0-15.753846-5.907692-15.753846-15.753846V59.076923c0-7.876923 5.907692-15.753846 15.753846-15.753846s15.753846 5.907692 15.753846 15.753846v228.430769c0 9.846154-7.876923 15.753846-15.753846 15.753846zM831.015385 846.769231c-3.938462 0-7.876923-1.969231-9.846154-3.938462l-161.476923-161.476923c-5.907692-5.907692-5.907692-15.753846 0-21.661538s15.753846-5.907692 21.661538 0l161.476923 161.476923c5.907692 5.907692 5.907692 15.753846 0 21.661538-3.938462 1.969231-7.876923 3.938462-11.815384 3.938462zM354.461538 368.246154c-3.938462 0-7.876923-1.969231-9.846153-3.938462l-161.476923-161.476923c-5.907692-5.907692-5.907692-15.753846 0-21.661538s15.753846-5.907692 21.661538 0l161.476923 161.476923c5.907692 5.907692 5.907692 15.753846 0 21.661538-3.938462 1.969231-7.876923 3.938462-11.815385 3.938462z" fill="#000000" p-id="2017"></path><path d="M578.953846 435.2c0 1.969231-1.969231 5.907692-3.938461 7.876923l-13.784616 13.784615c15.753846 13.784615 23.630769 33.476923 23.630769 53.169231 0 41.353846-33.476923 72.861538-72.861538 72.861539-41.353846 0-72.861538-33.476923-72.861538-72.861539 0-21.661538 9.846154-41.353846 23.630769-53.169231l-13.784616-13.784615c-1.969231-1.969231-3.938462-5.907692-3.938461-7.876923-21.661538 19.692308-35.446154 45.292308-35.446154 76.8 0 57.107692 45.292308 102.4 102.4 102.4 57.107692 0 102.4-45.292308 102.4-102.4 0-31.507692-13.784615-59.076923-35.446154-76.8z" fill="#000000" p-id="2018"></path><path d="M512 464.738462l-23.630769-21.661539c-9.846154 3.938462-19.692308 7.876923-25.6 15.753846l39.384615 39.384616c1.969231 1.969231 5.907692 3.938462 9.846154 3.938461s7.876923-1.969231 9.846154-3.938461l39.384615-39.384616c-7.876923-5.907692-15.753846-11.815385-25.6-15.753846L512 464.738462zM512 360.369231l27.569231 51.2c15.753846 3.938462 29.538462 11.815385 41.353846 21.661538 0-3.938462 0-5.907692-1.969231-9.846154l-53.169231-104.36923c-1.969231-3.938462-7.876923-7.876923-13.784615-7.876923-5.907692 0-9.846154 3.938462-13.784615 7.876923l-53.169231 104.36923c-1.969231 1.969231-1.969231 5.907692-1.969231 9.846154 11.815385-9.846154 25.6-17.723077 41.353846-21.661538l27.569231-51.2z" fill="#000000" p-id="2019"></path><path d="M547.446154 429.292308l-11.815385 11.815384c9.846154 3.938462 19.692308 7.876923 25.6 15.753846l13.784616-13.784615c1.969231-1.969231 3.938462-5.907692 3.938461-7.876923-11.815385-9.846154-25.6-17.723077-41.353846-21.661538l9.846154 15.753846zM462.769231 456.861538c7.876923-5.907692 15.753846-11.815385 25.6-15.753846l-11.815385-11.815384 7.876923-17.723077c-15.753846 3.938462-29.538462 11.815385-41.353846 21.661538 0 1.969231 1.969231 5.907692 3.938462 7.876923l15.753846 15.753846z" fill="#000000" p-id="2020"></path></svg>