<?xml version="1.0" encoding="utf-8"?>
<!-- Generator: Adobe Illustrator 16.0.0, SVG Export Plug-In . SVG Version: 6.00 Build 0)  -->
<!DOCTYPE svg PUBLIC "-//W3C//DTD SVG 1.1//EN" "http://www.w3.org/Graphics/SVG/1.1/DTD/svg11.dtd">
<svg version="1.1" id="图层_1" xmlns="http://www.w3.org/2000/svg" xmlns:xlink="http://www.w3.org/1999/xlink" x="0px" y="0px"
	 width="32px" height="32px" viewBox="0 0 32 32" enable-background="new 0 0 32 32" xml:space="preserve">
<circle fill="#B7B8CA" cx="16.031" cy="15.999" r="16.031"/>
<g>
	<path fill="#FFFFFF" d="M17.091,18.584v-1.479c0-1.054,0.854-1.907,1.907-1.907h5.496v-2.64c0-0.538-0.426-0.974-0.952-0.974H9.387
		c-0.526,0-0.952,0.436-0.952,0.974v10.643c0,0.538,0.426,0.974,0.952,0.974h14.155c0.526,0,0.952-0.436,0.952-0.974v-2.71h-5.496
		C17.945,20.491,17.091,19.637,17.091,18.584z"/>
	<path fill="#FFFFFF" d="M24.608,15.844h-5.88c-0.489,0-0.887,0.472-0.887,1.056v1.966c0,0.583,0.397,1.056,0.887,1.056h5.88
		c0.49,0,0.888-0.473,0.888-1.056v-1.966C25.496,16.315,25.099,15.844,24.608,15.844z M20.148,18.579
		c-0.385,0-0.697-0.312-0.697-0.697c0-0.385,0.313-0.697,0.697-0.697c0.386,0,0.697,0.313,0.697,0.697
		C20.846,18.268,20.534,18.579,20.148,18.579z"/>
	<path fill="#FFFFFF" d="M22.563,10.989L22.17,9.618c0,0-0.358-0.679-1.36-0.357s-6.211,1.729-6.211,1.729H22.563z"/>
	<path fill="#FFFFFF" d="M19.236,9.082l-0.465-0.894c0,0-0.536-0.608-1.216-0.25c-0.68,0.357-6.117,3.04-6.117,3.04l1.038,0.012
		L19.236,9.082z"/>
</g>
</svg>
