<?xml version="1.0" standalone="no"?><!DOCTYPE svg PUBLIC "-//W3C//DTD SVG 1.1//EN" "http://www.w3.org/Graphics/SVG/1.1/DTD/svg11.dtd"><svg t="1513128017553" class="icon" style="" viewBox="0 0 1030 1024" version="1.1" xmlns="http://www.w3.org/2000/svg" p-id="2748" xmlns:xlink="http://www.w3.org/1999/xlink" width="201.171875" height="200"><defs><style type="text/css"></style></defs><path d="M859.738975 628.37978l142.881022 151.87239L1029.921062 612.031837l-170.182087 16.347943z" fill="#000000" p-id="2749"></path><path d="M998.369532 483.863964a18.473176 18.473176 0 0 1-16.347943-18.963614 470.984237 470.984237 0 0 0-939.516283 44.139446 445.154487 445.154487 0 0 0 108.8773 296.388206 15.367066 15.367066 0 0 1 4.250465 12.587916 21.088846 21.088846 0 0 1-37.763748 12.587917A495.506152 495.506152 0 0 1 0.000654 509.039796a513.16193 513.16193 0 0 1 1023.54471-49.043829 22.560161 22.560161 0 0 1-25.175832 23.0506z m-500.247055 539.482118l-130.783544-151.381952L227.073582 981.331869l-25.175832-31.55153 172.307319-136.668803 130.783544 153.507184L945.892635 654.373009l25.175832 32.695886-472.94599 336.931105z" fill="#000000" p-id="2750"></path><path d="M478.341466 644.727723h-163.47943v-65.391772h147.131487v-65.391772h-147.131487v-49.043829h108.550341l-120.157381-228.871201h108.877301L490.438944 388.555456a204.512767 204.512767 0 0 1 19.454052 51.82298 520.681984 520.681984 0 0 1 19.454052-51.82298l77.816208-152.526307h104.463356l-120.157381 228.871201h115.906916v65.391772h-147.131487v49.043829h147.131487v65.391772h-147.131487v114.435601h-98.087658v-114.435601h16.347943m-2.94263 13.568793" fill="#000000" p-id="2751"></path></svg>