<?xml version="1.0" standalone="no"?><!DOCTYPE svg PUBLIC "-//W3C//DTD SVG 1.1//EN" "http://www.w3.org/Graphics/SVG/1.1/DTD/svg11.dtd"><svg t="1513840012579" class="icon" style="" viewBox="0 0 1037 1024" version="1.1" xmlns="http://www.w3.org/2000/svg" p-id="6273" xmlns:xlink="http://www.w3.org/1999/xlink" width="202.5390625" height="200"><defs><style type="text/css"></style></defs><path d="M1036.050773 898.950827c0 0.003413 0 0.003413 0 0.003413-0.001707 68.11648-55.217493 123.339093-123.33056 123.339093-0.003413 0-0.00512 0.001707-0.00512 0.001707L123.339093 1022.29504c-0.003413 0-0.003413-0.001707-0.01024-0.001707-68.11136 0-123.328853-55.220907-123.328853-123.339093L0 158.916267c0-54.493867 44.178773-98.674347 98.674347-98.674347 0.003413 0 0.006827 0 0.01024 0L497.563307 60.245333l87.323307-43.444907c12.672-4.599467 32.139947-6.23616 42.315093 2.138453l23.78752 41.304747 187.723093 0c54.493867 0 98.66752 44.177067 98.66752 98.674347l0 73.99936 0.003413 0c54.493867 0 98.670933 44.173653 98.670933 98.67264L1036.050773 898.950827 1036.050773 898.950827zM98.674347 109.581653c-0.003413 0-0.003413 0-0.003413 0-27.245227 0-49.332907 46.752427-49.332907 74.002773 0 27.24864 22.08768 49.33632 49.339733 49.33632l35.648853 0c-0.003413 0-24.66816 0-24.66816 0l4.672853 0c0.315733-0.126293 0.523947-0.395947 0.84992-0.51712l295.565653-122.820267L98.674347 109.581653 98.674347 109.581653zM618.61376 114.030933l-26.221227-47.445333-0.003413-0.001707-87.860907 42.999467-0.223573 0-272.320853 123.337387 445.55776 0L618.61376 114.030933 618.61376 114.030933zM888.04864 158.91968c0-27.24864-22.089387-49.33632-49.33632-49.33632l-169.782613 0 60.540587 123.33568 158.574933 0c0 0 0 0 0.00512 0L888.050347 158.91968 888.04864 158.91968zM937.38496 282.26048 98.674347 282.26048c-0.006827 0-0.011947-0.006827-0.02048-0.006827-18.061653-0.003413-34.75968-5.213867-49.317547-13.684053l0 630.381227c0 40.874667 33.133227 74.001067 74.001067 74.001067l789.37088 0c40.871253 0 74.002773-33.1264 74.002773-74.001067L986.71104 726.273707l-98.674347 0c-54.49216 0-98.665813-44.171947-98.665813-98.66752 0-54.49216 44.173653-98.669227 98.665813-98.669227l98.674347 0L986.71104 331.593387C986.714453 304.344747 964.625067 282.26048 937.38496 282.26048L937.38496 282.26048zM986.712747 676.942507l0.001707-98.67264-98.669227 0c-27.246933 0-49.33632 22.08768-49.33632 49.33632 0 27.252053 22.089387 49.33632 49.33632 49.33632L986.712747 676.942507 986.712747 676.942507 986.712747 676.942507zM888.04352 602.93632l49.33632 0 0 49.329493-49.33632 0L888.04352 602.93632 888.04352 602.93632z" p-id="6274" fill="#333333"></path></svg>