<svg xmlns="http://www.w3.org/2000/svg" viewBox="0 0 26 28"><title>资源 2</title><g id="图层_2" data-name="图层 2"><g id="图层_1-2" data-name="图层 1"><path d="M22.7,15.27H15.3A3.29,3.29,0,0,0,12,18.56v6a3.3,3.3,0,0,0,3.3,3.29h7.4A3.29,3.29,0,0,0,26,24.57v-6A3.29,3.29,0,0,0,22.7,15.27Zm1.77,9.23a1.85,1.85,0,0,1-1.85,1.85H15.43a1.85,1.85,0,0,1-1.84-1.85V18.67a1.84,1.84,0,0,1,1.84-1.84h7.19a1.84,1.84,0,0,1,1.85,1.84V24.5Z"/><path d="M8.91,26H4a2,2,0,0,1-2-2V4A2,2,0,0,1,4,2H22a2,2,0,0,1,2,2v7a1,1,0,1,0,2,0V4a4,4,0,0,0-4-4H4A4,4,0,0,0,0,4V24a4,4,0,0,0,4,4H8.91a1,1,0,0,0,0-2Z"/><path d="M21,6H5A1,1,0,0,0,5,8H21a1,1,0,0,0,0-2Z"/><path d="M11,12H5a1,1,0,0,0,0,2h6a1,1,0,0,0,0-2Z"/><path d="M9,18H5a1,1,0,0,0,0,2H9a1,1,0,0,0,0-2Z"/></g></g></svg>