<?xml version="1.0" standalone="no"?><!DOCTYPE svg PUBLIC "-//W3C//DTD SVG 1.1//EN" "http://www.w3.org/Graphics/SVG/1.1/DTD/svg11.dtd"><svg t="1528160354388" class="icon" style="" viewBox="0 0 1030 1024" version="1.1" xmlns="http://www.w3.org/2000/svg" p-id="2144" xmlns:xlink="http://www.w3.org/1999/xlink" width="201.171875" height="200"><defs><style type="text/css"></style></defs><path d="M32 537.6h940.8c19.2 0 32-19.2 32-38.4s-12.8-38.4-32-38.4H32c-19.2 6.4-32 19.2-32 44.8 0 19.2 12.8 32 32 32zM902.4 0h-224c-19.2 0-32 19.2-32 38.4s12.8 38.4 32 38.4h224c32 0 51.2 25.6 51.2 57.6V320c0 19.2 12.8 38.4 32 38.4 25.6 0 38.4-19.2 38.4-38.4V134.4C1024 64 972.8 0 902.4 0zM992 646.4c-19.2 0-32 19.2-32 38.4v198.4c0 32-25.6 57.6-51.2 57.6h-211.2c-19.2 0-32 19.2-32 38.4s12.8 38.4 32 38.4h211.2c64 0 121.6-57.6 121.6-134.4v-198.4c-6.4-19.2-19.2-38.4-38.4-38.4zM294.4 947.2H121.6c-32 0-51.2-25.6-51.2-57.6V704c0-19.2-12.8-38.4-32-38.4-25.6 0-38.4 12.8-38.4 38.4v185.6C0 960 51.2 1024 121.6 1024h172.8c19.2 0 32-19.2 32-38.4 0-25.6-12.8-38.4-32-38.4zM32 371.2c19.2 0 32-19.2 32-38.4V134.4c0-32 25.6-57.6 51.2-57.6h166.4c25.6 0 38.4-19.2 38.4-38.4S307.2 0 288 0H121.6C51.2 0 0 64 0 134.4v198.4c0 19.2 12.8 38.4 32 38.4z" fill="#000000" p-id="2145"></path></svg>